<?xml version="1.0" encoding="iso-8859-1"?>
<!-- Generator: Adobe Illustrator 19.0.0, SVG Export Plug-In . SVG Version: 6.00 Build 0)  -->
<svg version="1.1" id="Capa_1" xmlns="http://www.w3.org/2000/svg" xmlns:xlink="http://www.w3.org/1999/xlink" x="0px" y="0px"
	 viewBox="0 0 512 512" style="enable-background:new 0 0 512 512;" xml:space="preserve">
<circle style="fill:#005FD1;" cx="256" cy="256" r="256"/>
<path style="fill:#003D8D;" d="M512,256c0-28.876-4.786-56.633-13.599-82.527l-96.138-96.138H157.072V93.21H140.65v213.325
	c-14.024,21.261-14.331,48.909-0.897,70.44l-30.438,30.439c-5.753,5.753-5.753,15.167,0,20.92l73.734,73.102
	C206.17,508.298,230.651,512,256,512C397.385,512,512,397.385,512,256z"/>
<rect x="157.07" y="77.33" style="fill:#E0E0E2;" width="245.19" height="303.69"/>
<rect x="279.67" y="77.33" style="fill:#AEADB3;" width="122.59" height="303.7"/>
<rect x="140.65" y="93.21" style="fill:#FFFFFF;" width="245.19" height="303.69"/>
<rect x="263.25" y="93.21" style="fill:#FFF5CB;" width="122.59" height="303.7"/>
<rect x="177.18" y="156.51" style="fill:#FF633E;" width="73.51" height="19.09"/>
<rect x="275.81" y="156.51" style="fill:#005FD1;" width="73.51" height="19.09"/>
<rect x="177.18" y="328.33" style="fill:#FF633E;" width="73.51" height="19.09"/>
<rect x="275.81" y="328.33" style="fill:#005FD1;" width="73.51" height="19.09"/>
<rect x="177.18" y="199.46" style="fill:#FF633E;" width="31.99" height="19.09"/>
<rect x="317.32" y="199.46" style="fill:#005FD1;" width="31.99" height="19.09"/>
<g>
	<rect x="230.4" y="199.46" style="fill:#FF633E;" width="65.69" height="19.09"/>
	<rect x="177.18" y="242.42" style="fill:#FF633E;" width="73.51" height="19.09"/>
</g>
<rect x="275.81" y="242.42" style="fill:#005FD1;" width="73.51" height="19.09"/>
<rect x="177.18" y="285.37" style="fill:#FF633E;" width="31.99" height="19.09"/>
<rect x="317.32" y="285.37" style="fill:#005FD1;" width="31.99" height="19.09"/>
<rect x="230.4" y="285.37" style="fill:#FF633E;" width="65.69" height="19.09"/>
<g>
	<rect x="263.25" y="199.46" style="fill:#005FD1;" width="32.844" height="19.09"/>
	<rect x="263.25" y="285.37" style="fill:#005FD1;" width="32.844" height="19.09"/>
</g>
<path style="fill:#57555C;" d="M241.389,388.624c25.506-25.506,25.506-66.86,0-92.366c-25.506-25.506-66.86-25.506-92.366,0
	c-21.908,21.908-24.998,55.509-9.27,80.716l-30.438,30.439c-5.753,5.753-5.753,15.167,0,20.92c5.753,5.753,15.167,5.753,20.92,0
	l30.439-30.438C185.881,413.622,219.481,410.533,241.389,388.624z"/>
<path style="fill:#2A2A2C;" d="M241.389,388.628c-21.908,21.908-55.51,24.993-80.715,9.263l-30.442,30.442
	c-5.75,5.75-15.163,5.754-20.917,0L241.39,296.259C266.895,321.763,266.898,363.119,241.389,388.628z"/>
<circle style="fill:#00EED0;" cx="195.21" cy="342.44" r="47.45"/>
<path style="fill:#00AD95;" d="M228.756,375.994c-18.527,18.526-48.572,18.53-67.102,0l67.106-67.106
	C247.289,327.419,247.286,357.464,228.756,375.994z"/>
<g>
</g>
<g>
</g>
<g>
</g>
<g>
</g>
<g>
</g>
<g>
</g>
<g>
</g>
<g>
</g>
<g>
</g>
<g>
</g>
<g>
</g>
<g>
</g>
<g>
</g>
<g>
</g>
<g>
</g>
</svg>
